<svg version="1.1" id="Layer_1" xmlns="http://www.w3.org/2000/svg" xmlns:xlink="http://www.w3.org/1999/xlink" x="0px" y="0px"
	 viewBox="0 0 512 512" style="enable-background:new 0 0 512 512;" xml:space="preserve">
<style type="text/css">
	.st0{fill:#86358f;}
</style>
<g id="XMLID_1_">
	<path id="XMLID_3_" class="st0" d="M313.7,284.9H216c-9.3,0-16.8,7.4-16.8,16.8c0,9.3,7.4,16.8,16.8,16.8h97.7
		c9.3,0,16.8-7.4,16.8-16.8C330.5,292.3,323,284.9,313.7,284.9z"/>
	<path id="XMLID_4_" class="st0" d="M216,218.8h48.4c9.3,0,16.8-7.4,16.8-16.8c0-9.3-7.4-16.8-16.8-16.8H216
		c-9.3,0-16.8,7.4-16.8,16.8C199.2,211.3,206.7,218.8,216,218.8z"/>
	<path id="XMLID_7_" class="st0" d="M256,0C114.5,0,0,114.5,0,256s114.5,256,256,256s256-114.5,256-256S397.5,0,256,0z M401.2,302.5
		c0,47.5-39.1,86.6-86.6,86.6H215c-47.5,0-86.6-39.1-86.6-86.6V201.1c0-47.5,39.1-86.6,86.6-86.6h60.5c22.3,2.8,54.9,21.4,67,47.5
		c3.7,7.4,4.7,8.4,7.4,29.8c1.9,11.2,1.9,18.6,7.4,23.3c6.5,6.5,32.6,1.9,37.2,5.6l3.7,2.8l1.9,4.7l0.9,3.7V302.5z"/>
</g>
</svg>
